<?xml version="1.0" standalone="no"?>
<!DOCTYPE svg PUBLIC "-//W3C//DTD SVG 20010904//EN"
 "http://www.w3.org/TR/2001/REC-SVG-20010904/DTD/svg10.dtd">
<svg version="1.0" xmlns="http://www.w3.org/2000/svg"
 width="1600.000000pt" height="1600.000000pt" viewBox="0 0 1600.000000 1600.000000"
 preserveAspectRatio="xMidYMid meet">
<metadata>
Created by potrace 1.14, written by Peter Selinger 2001-2017
</metadata>
<g transform="translate(0.000000,1600.000000) scale(0.100000,-0.100000)"
fill="#000000" stroke="none">
<path d="M5274 15774 c-20 -7 -49 -24 -63 -39 -22 -22 -26 -34 -26 -88 l0 -62
325 -483 c179 -265 330 -490 335 -500 6 -9 12 -19 15 -22 7 -7 30 -49 30 -54
0 -3 -59 -27 -67 -27 -5 1 -288 -143 -293 -148 -3 -4 -30 -19 -60 -35 -46 -24
-232 -142 -265 -168 -5 -5 -53 -40 -105 -79 -52 -39 -105 -81 -117 -93 -12
-11 -43 -39 -69 -61 -151 -127 -359 -360 -503 -563 -74 -106 -214 -332 -205
-332 3 0 -3 -12 -14 -27 -17 -25 -85 -160 -87 -173 0 -3 -8 -19 -18 -37 -9
-17 -26 -55 -37 -85 -11 -29 -25 -62 -30 -73 -24 -50 -104 -284 -115 -338 -2
-9 -6 -21 -9 -25 -3 -5 -7 -19 -10 -33 -3 -13 -15 -60 -26 -104 -11 -44 -23
-96 -26 -115 -7 -39 -8 -44 -17 -80 -4 -14 -9 -38 -11 -55 -2 -16 -5 -30 -6
-30 -1 0 -3 -16 -5 -35 -2 -19 -6 -48 -9 -63 -6 -35 -17 -137 -20 -198 -2 -25
-5 -50 -8 -55 -3 -5 -5 -22 -4 -39 l1 -30 4262 0 4262 0 -4 75 c-6 98 -20 235
-25 235 -1 0 -3 16 -5 35 -7 64 -15 110 -35 205 -6 28 -15 71 -20 97 -5 27
-11 52 -14 56 -3 5 -7 19 -10 33 -3 13 -14 56 -26 94 -11 39 -23 80 -25 93
-10 42 -98 279 -131 350 -13 29 -24 54 -24 57 0 10 -160 325 -170 335 -3 3
-13 20 -23 38 -19 34 -133 208 -164 252 -176 242 -445 518 -663 680 -18 14
-45 34 -59 45 -137 109 -434 281 -646 374 -89 40 -101 47 -97 60 1 6 148 230
327 497 179 267 325 487 325 490 0 3 8 14 18 25 61 64 34 189 -47 221 -96 38
-138 11 -248 -155 -48 -72 -90 -134 -93 -137 -3 -3 -9 -13 -15 -22 -18 -31
-508 -762 -533 -795 -23 -32 -25 -32 -58 -18 -19 8 -34 12 -34 10 0 -2 -20 4
-44 15 -24 10 -46 16 -49 13 -3 -2 -15 1 -28 7 -12 7 -36 14 -53 17 -17 3 -39
9 -48 14 -10 5 -18 7 -18 3 0 -3 -6 -1 -13 5 -8 6 -16 9 -19 6 -3 -3 -24 1
-47 9 -23 9 -44 15 -46 15 -7 0 -74 12 -100 18 -11 3 -29 6 -40 8 -11 2 -22 4
-25 5 -3 1 -9 3 -15 5 -5 1 -12 3 -15 4 -3 1 -21 4 -40 7 -19 2 -48 6 -65 9
-75 14 -153 26 -190 31 -22 2 -56 7 -75 9 -19 3 -57 7 -85 10 -27 2 -77 7
-110 11 -33 3 -87 7 -120 9 -107 6 -175 14 -185 20 -6 3 -10 1 -10 -6 0 -7 -4
-8 -12 -2 -15 11 -615 10 -728 -2 -41 -4 -97 -8 -125 -10 -56 -3 -181 -14
-235 -21 -19 -2 -55 -6 -80 -9 -42 -5 -66 -8 -145 -20 -67 -10 -95 -15 -200
-36 -60 -11 -117 -22 -125 -24 -45 -10 -157 -36 -170 -39 -79 -20 -255 -71
-290 -83 -8 -4 -19 -7 -25 -8 -5 -2 -16 -4 -24 -6 -8 -3 -51 52 -111 141 -54
80 -103 150 -109 157 -6 7 -11 14 -11 17 0 9 -144 221 -152 224 -5 2 -8 9 -8
16 0 7 -9 21 -20 31 -11 10 -20 22 -20 26 0 5 -19 36 -42 69 -52 74 -74 108
-89 138 -7 12 -16 22 -21 22 -4 0 -8 6 -8 13 0 7 -8 22 -18 33 -10 10 -26 33
-37 50 -84 134 -140 201 -170 205 -42 6 -57 5 -91 -7z m992 -2199 c39 -8 59
-13 59 -15 0 -1 10 -3 23 -6 73 -13 215 -140 256 -229 41 -86 47 -110 51 -184
9 -158 -42 -281 -165 -398 -22 -21 -160 -97 -160 -89 0 2 -19 -2 -42 -8 -43
-13 -163 -14 -205 -2 -13 3 -32 8 -44 11 -46 10 -135 63 -181 108 -42 42 -110
135 -109 151 0 3 -7 23 -16 43 -17 41 -23 88 -22 168 1 77 3 95 9 95 3 0 6 8
7 18 4 46 61 141 123 202 79 79 156 120 255 136 22 3 41 7 43 8 4 4 85 -2 118
-9z m3644 0 c25 -4 51 -8 58 -8 6 0 12 -4 12 -9 0 -4 8 -8 18 -8 30 0 120 -59
173 -113 180 -184 177 -479 -6 -662 -50 -50 -154 -118 -179 -117 -3 1 -20 -4
-38 -10 -92 -29 -247 -10 -348 43 -64 34 -161 135 -192 199 -41 86 -48 118
-51 230 -6 211 172 418 392 456 67 11 82 11 161 -1z"/>
<path d="M3759 10803 c-3 -202 1 -6577 5 -6626 14 -177 89 -374 201 -531 50
-71 182 -204 235 -239 18 -12 45 -30 59 -39 58 -40 202 -107 266 -125 151 -41
197 -45 570 -47 l320 -1 1 -1210 c0 -666 4 -1230 8 -1255 33 -203 193 -397
411 -499 162 -76 252 -95 455 -95 166 0 282 20 380 65 25 12 61 28 80 37 66
30 182 116 237 176 88 98 146 215 160 326 3 25 6 587 7 1250 l0 1205 858 0
c472 0 859 -2 859 -5 1 -3 2 -545 3 -1205 2 -660 6 -1224 10 -1253 30 -200
189 -393 416 -504 48 -24 170 -68 170 -62 0 2 8 0 18 -5 44 -24 337 -36 437
-18 286 51 528 217 630 432 61 129 58 70 59 1400 l1 1220 325 1 c373 1 447 8
585 52 175 57 338 162 464 298 61 66 141 180 163 232 7 15 17 34 24 42 6 8 14
24 17 35 3 11 15 47 27 80 12 33 23 67 25 75 2 8 9 44 16 80 12 54 14 636 14
3400 l0 3335 -4257 3 -4258 2 -1 -27z"/>
<path d="M2197 10775 c-1 -2 -33 -5 -72 -8 -61 -5 -97 -11 -115 -17 -3 -1 -8
-2 -12 -1 -4 0 -42 -11 -85 -25 -282 -95 -468 -272 -530 -505 -15 -59 -16
-237 -17 -2249 0 -1764 3 -2196 13 -2240 34 -143 127 -279 256 -375 22 -16 42
-32 45 -35 22 -22 175 -94 226 -106 16 -4 35 -11 42 -17 6 -5 12 -7 12 -4 0 3
15 1 33 -4 105 -31 351 -31 480 0 264 63 479 220 572 417 61 130 57 -36 59
2344 1 2051 0 2179 -17 2254 -27 121 -76 207 -176 306 -128 127 -274 203 -476
246 -40 9 -232 24 -238 19z"/>
<path d="M13787 10774 c-1 -1 -29 -4 -62 -5 -211 -10 -463 -123 -596 -267 -94
-101 -161 -228 -175 -330 -8 -65 -4 -4389 5 -4420 5 -18 10 -36 11 -40 12 -81
94 -220 174 -296 124 -117 294 -201 476 -237 30 -5 105 -12 166 -14 278 -8
532 84 705 255 81 80 132 158 166 258 l27 77 1 2189 c1 1579 -2 2205 -10 2245
-12 59 -16 70 -47 141 -99 220 -376 399 -673 435 -57 7 -164 13 -168 9z"/>
</g>
</svg>
